<svg xmlns="http://www.w3.org/2000/svg" width="1024" height="1024" viewBox="0 0 1024 1024">
<g>
<path d="M 931.11 680.41 C896.02,687.05 861.60,677.33 835.05,653.30 C818.34,638.19 806.27,614.52 801.99,588.50 C800.19,577.58 801.50,544.30 803.95,538.50 C804.42,537.40 805.58,533.80 806.53,530.50 C808.02,525.36 810.81,518.73 813.89,513.00 C814.34,512.17 815.36,510.24 816.16,508.71 C820.97,499.52 833.31,485.41 843.60,477.36 C852.82,470.13 873.81,460.66 884.50,458.91 C887.25,458.46 893.10,457.42 897.50,456.60 C907.80,454.68 914.45,454.65 926.09,456.48 C937.59,458.29 941.82,459.33 948.50,461.97 C949.60,462.41 953.19,463.61 956.47,464.63 C959.75,465.66 964.48,467.86 966.97,469.52 C969.46,471.17 972.79,473.19 974.37,474.00 C979.73,476.74 992.10,488.14 998.50,496.22 C1008.88,509.36 1016.11,525.64 1019.67,543.91 C1022.14,556.58 1021.86,578.50 1019.06,591.93 C1009.49,637.89 975.58,672.01 931.11,680.41 ZM 405.92 682.96 C394.92,684.09 393.24,684.09 382.00,682.98 C367.25,681.52 347.86,675.52 336.47,668.88 C311.59,654.38 293.73,633.13 285.97,608.77 C284.35,603.67 282.48,597.92 281.81,596.00 C281.01,593.65 280.64,585.18 280.70,570.18 C280.78,550.84 281.06,546.97 282.81,541.18 C283.92,537.51 285.55,532.02 286.43,529.00 C288.10,523.24 288.55,522.26 293.97,512.50 C299.57,502.42 311.89,487.68 319.47,482.00 C322.04,480.08 325.57,477.35 327.32,475.93 C329.07,474.52 332.08,472.60 334.00,471.66 C335.92,470.72 338.17,469.54 339.00,469.04 C341.19,467.71 350.94,463.43 355.00,462.02 C356.92,461.35 359.40,460.44 360.50,460.00 C362.57,459.18 370.53,457.51 377.50,456.42 C393.42,453.95 417.28,455.61 428.50,459.96 C429.60,460.39 433.65,461.75 437.50,462.98 C444.04,465.08 459.88,472.54 461.00,474.05 C461.27,474.42 462.85,475.41 464.50,476.26 C470.11,479.14 484.58,493.74 490.39,502.38 C500.78,517.84 506.76,536.33 504.99,547.50 C500.84,573.69 484.46,595.07 459.84,606.44 C450.74,610.64 439.37,613.78 438.08,612.46 C437.50,611.86 438.95,607.74 441.93,601.50 C447.99,588.83 449.00,584.49 449.00,571.24 C449.00,549.36 442.71,533.42 428.84,520.17 C410.25,502.42 377.80,502.65 358.91,520.67 C348.78,530.33 343.04,542.66 341.05,559.03 C338.53,579.72 343.46,598.49 355.26,613.17 C359.00,617.83 371.02,627.00 373.37,627.00 C374.27,627.00 375.00,627.38 375.00,627.84 C375.00,629.83 383.87,631.44 394.93,631.47 C406.88,631.50 411.90,630.26 421.67,624.87 C426.68,622.11 431.37,621.63 437.21,623.30 C440.12,624.12 444.98,625.33 448.00,625.97 C454.58,627.37 455.07,627.56 466.36,633.13 C471.24,635.53 476.84,638.89 478.82,640.60 L 482.41 643.69 L 479.15 647.81 C464.75,666.00 435.79,679.89 405.92,682.96 ZM 218.45 675.62 C204.54,679.27 178.97,679.95 165.50,677.03 C136.31,670.70 118.98,658.03 110.29,636.69 C106.91,628.38 104.93,620.55 104.70,614.50 L 104.50 609.50 L 163.30 609.50 L 166.09 616.36 C169.27,624.24 171.61,627.05 177.82,630.53 C185.94,635.06 199.12,633.50 206.33,627.15 C208.77,625.00 211.00,619.49 210.99,615.63 C210.98,611.55 205.92,602.80 201.72,599.60 C196.75,595.81 189.57,592.80 167.00,585.03 C135.25,574.11 124.08,568.07 116.07,557.47 C107.44,546.05 104.60,536.94 104.54,520.50 C104.48,503.26 107.61,493.29 116.67,481.84 C121.13,476.20 129.57,469.00 131.72,469.00 C132.06,469.00 133.05,468.36 133.92,467.58 C135.97,465.75 149.72,460.30 155.79,458.92 C164.03,457.05 179.15,455.00 184.41,455.04 C187.21,455.05 193.55,455.76 198.50,456.61 C203.45,457.46 209.19,458.39 211.26,458.68 C213.32,458.97 215.26,459.61 215.57,460.11 C215.87,460.60 217.19,461.00 218.50,461.00 C219.81,461.00 221.16,461.45 221.50,462.00 C221.84,462.55 223.00,463.00 224.07,463.00 C225.15,463.00 226.81,463.40 227.76,463.89 C228.72,464.38 232.20,466.06 235.50,467.62 C244.76,472.01 255.67,483.36 260.85,494.00 C265.05,502.62 267.63,511.25 268.19,518.50 L 268.50 522.50 L 238.88 522.76 C215.93,522.97 209.05,522.74 208.31,521.76 C207.79,521.07 206.72,518.48 205.94,516.02 C203.00,506.72 196.07,500.66 186.95,499.41 C175.02,497.77 164.00,506.47 164.00,517.51 C164.00,527.60 174.36,535.86 196.00,543.02 C199.57,544.20 204.31,545.98 206.53,546.98 C208.74,547.98 214.12,550.00 218.48,551.46 C227.02,554.33 246.00,563.66 246.00,565.00 C246.00,565.44 247.92,566.93 250.26,568.31 C257.39,572.48 264.51,581.94 268.74,592.83 C270.98,598.60 271.33,601.05 271.36,611.00 C271.38,618.97 270.84,624.47 269.62,628.91 C263.13,652.53 245.65,668.49 218.45,675.62 ZM 556.81 631.92 C549.74,633.54 542.04,633.20 537.31,631.05 C527.60,626.64 519.01,614.88 515.98,601.80 C515.30,598.89 514.30,595.15 513.75,593.50 C512.33,589.21 511.83,560.22 513.05,552.78 C513.62,549.32 514.48,543.58 514.96,540.00 C516.06,531.85 519.92,519.92 523.05,515.00 C523.58,514.17 524.42,512.60 524.93,511.50 C526.98,507.05 534.58,496.36 541.47,488.24 C548.31,480.17 575.52,463.00 581.45,463.00 C582.32,463.00 583.81,462.56 584.76,462.03 C588.68,459.85 596.69,457.93 608.26,456.40 C618.64,455.03 622.02,454.97 630.50,456.01 C658.87,459.46 685.21,471.90 699.73,488.70 C710.87,501.59 719.90,519.67 721.68,532.68 L 722.27 537.00 L 692.29 537.00 C690.12,537.00 688.11,537.00 686.23,537.00 C667.58,537.03 662.74,537.03 660.31,534.61 C659.22,533.52 658.61,531.94 657.45,529.64 C654.45,523.70 645.19,514.80 638.84,511.74 C610.92,498.33 580.42,515.21 572.39,548.50 C569.80,559.26 570.05,580.19 572.90,590.46 C575.43,599.57 579.71,608.14 584.60,613.85 L 587.97 617.78 L 574.73 624.31 C567.46,627.91 559.39,631.33 556.81,631.92 ZM 788.00 463.00 L 788.00 677.00 L 759.06 677.00 C741.87,677.00 729.88,676.61 729.53,676.05 C728.78,674.83 728.79,465.14 729.55,463.92 C729.87,463.39 742.53,463.00 759.06,463.00 ZM 900.00 629.59 C902.47,630.23 908.10,630.82 912.50,630.88 C920.20,630.99 925.74,629.67 934.00,625.75 C939.32,623.22 949.17,614.58 952.33,609.66 C957.75,601.23 958.55,599.70 959.80,595.25 C960.46,592.91 961.55,589.13 962.21,586.84 C963.76,581.52 963.87,555.53 962.36,551.50 C961.74,549.85 960.63,546.47 959.90,544.00 C957.87,537.12 952.46,528.52 946.02,521.94 C932.87,508.50 911.69,503.91 893.09,510.47 C879.16,515.38 867.79,527.91 862.28,544.42 C859.81,551.83 859.59,553.83 859.57,568.50 C859.55,583.48 859.72,585.01 862.35,592.50 C866.22,603.56 869.84,609.46 877.20,616.71 C883.61,623.02 891.15,627.28 900.00,629.59 ZM 172.48 399.25 L 169.76 411.00 L 136.04 411.00 L 135.39 408.25 C135.04,406.74 134.15,403.25 133.42,400.50 C132.69,397.75 131.81,394.38 131.46,393.00 C131.12,391.62 130.45,389.60 129.99,388.50 C129.53,387.40 128.92,385.38 128.64,384.00 C128.37,382.62 127.70,379.92 127.16,378.00 C126.62,376.08 125.24,371.12 124.09,367.00 C120.00,352.32 117.81,344.46 116.97,341.50 C114.72,333.60 114.00,330.96 112.18,324.00 C111.10,319.88 109.46,314.32 108.54,311.66 C105.89,304.03 105.95,304.00 121.91,304.00 C129.79,304.00 136.14,304.42 136.48,304.96 C137.22,306.17 139.65,317.25 146.55,350.90 C149.52,365.41 152.18,377.51 152.45,377.79 C153.05,378.38 157.00,369.42 157.00,367.48 C157.00,366.73 157.45,365.84 158.00,365.50 C158.55,365.16 159.00,363.03 159.00,360.76 C159.00,358.50 159.42,355.26 159.94,353.57 C161.14,349.64 163.94,337.81 165.05,332.00 C165.52,329.52 166.40,325.25 167.01,322.50 C167.61,319.75 168.44,315.18 168.84,312.35 C169.29,309.24 169.56,307.28 170.65,306.06 C172.48,304.00 176.62,304.00 187.79,304.00 L 188.00 304.00 C199.40,304.00 204.03,304.35 204.76,305.25 C205.31,305.94 209.43,322.25 213.90,341.50 C218.37,360.75 222.44,377.40 222.95,378.50 L 223.86 380.50 L 223.94 378.50 C223.98,377.40 224.97,374.92 226.15,373.00 C227.41,370.95 228.65,366.60 229.15,362.50 C230.24,353.45 231.68,344.65 232.99,339.00 C233.56,336.52 234.43,332.02 234.92,329.00 C235.42,325.98 236.04,322.83 236.31,322.00 C236.57,321.17 237.37,317.20 238.07,313.16 C239.74,303.64 241.20,302.51 250.04,303.93 C253.48,304.48 258.87,304.67 262.01,304.34 C265.74,303.95 267.96,304.13 268.41,304.86 C268.79,305.47 267.76,311.04 266.12,317.23 C262.88,329.49 242.13,406.39 241.28,409.27 C240.80,410.90 239.30,411.02 223.65,410.77 L 206.55 410.50 L 205.84 408.00 C205.46,406.62 204.60,403.48 203.93,401.00 C203.27,398.52 202.35,395.15 201.89,393.50 C201.43,391.85 200.33,387.58 199.45,384.00 C198.56,380.42 197.40,375.92 196.85,374.00 C195.33,368.61 193.98,362.94 193.04,358.00 C192.01,352.63 188.22,342.26 187.01,341.51 C186.54,341.21 185.16,345.37 183.96,350.74 C182.75,356.11 180.29,366.58 178.49,374.00 C176.68,381.42 173.98,392.79 172.48,399.25 ZM 463.00 375.44 C462.57,406.55 462.30,411.48 461.00,411.52 C460.17,411.55 452.86,411.43 444.75,411.26 L 430.00 410.95 L 429.82 388.22 C429.72,375.73 429.69,343.45 429.75,316.50 L 429.87 267.50 L 446.44 267.23 L 463.00 266.95 L 463.00 318.05 L 465.75 316.61 C467.26,315.82 470.08,313.51 472.00,311.49 C475.85,307.44 477.84,306.43 486.00,304.42 C493.22,302.65 497.90,302.67 507.00,304.54 C519.35,307.08 526.14,313.42 529.95,326.00 C531.75,331.91 531.95,336.07 532.21,371.77 L 532.50 411.05 L 500.61 410.50 L 500.86 381.50 C501.16,345.62 499.88,337.83 492.84,332.69 C488.71,329.67 477.61,329.19 471.75,331.78 C463.38,335.49 463.57,334.55 463.00,375.44 ZM 636.61 681.45 C624.43,683.58 603.95,683.38 592.78,681.02 C570.90,676.41 554.03,667.93 538.50,653.72 C532.28,648.04 532.87,646.25 541.57,644.28 C544.83,643.55 554.47,640.67 562.99,637.90 C576.18,633.60 579.29,632.19 583.96,628.34 C590.40,623.04 592.32,623.00 603.30,627.98 C609.05,630.59 611.13,631.00 618.54,631.00 C628.41,631.00 634.62,629.68 641.00,626.21 C646.67,623.14 656.31,613.82 659.58,608.26 C663.64,601.35 664.64,601.13 687.50,602.03 C699.39,602.50 709.53,602.44 712.50,601.88 C719.33,600.60 722.32,602.13 721.47,606.44 C719.65,615.60 713.79,629.01 707.68,638.00 C703.07,644.79 692.36,655.64 684.47,661.52 C671.53,671.16 654.16,678.39 636.61,681.45 ZM 405.00 399.04 L 405.00 411.00 L 389.25 410.96 C376.28,410.93 372.55,410.59 368.14,409.00 C359.12,405.75 353.65,400.56 350.71,392.44 C346.85,381.77 346.77,380.97 347.10,357.62 C347.28,344.90 347.08,333.49 346.65,332.25 C345.96,330.26 345.18,330.00 339.99,330.00 C336.76,330.00 333.92,329.66 333.68,329.25 C333.43,328.84 333.07,323.10 332.87,316.50 L 332.50 304.50 L 338.09 304.50 C346.54,304.50 346.89,303.92 347.22,289.65 L 347.50 277.50 L 363.75 277.23 L 380.00 276.95 L 380.00 301.95 L 382.97 303.49 C385.31,304.69 386.86,304.81 390.22,304.04 C395.43,302.83 402.04,302.74 403.78,303.84 C404.74,304.45 404.99,307.81 404.78,317.08 L 404.50 329.50 L 392.44 329.78 L 380.37 330.06 L 380.60 353.28 C380.73,366.05 380.87,377.03 380.92,377.67 C380.96,378.32 382.17,380.23 383.59,381.92 C386.05,384.85 386.53,385.00 393.65,385.00 L 393.96 385.00 C399.09,385.00 401.83,385.00 403.31,386.37 C405.00,387.95 405.00,391.35 405.00,398.66 ZM 302.08 411.00 C295.53,411.00 289.56,411.16 288.83,411.36 C288.10,411.56 286.49,411.53 285.25,411.29 L 283.00 410.86 L 283.00 304.31 L 297.63 303.68 C305.68,303.33 312.66,303.29 313.13,303.58 C313.61,303.88 314.00,328.17 314.00,357.56 L 314.00 411.00 ZM 305.62 287.09 C303.35,288.11 299.48,288.95 297.00,288.93 C278.21,288.84 272.09,262.29 288.98,254.19 C293.28,252.13 302.01,252.23 307.16,254.40 C320.32,259.97 319.33,280.86 305.62,287.09 Z" fill="rgb(1,58,154)"/>
<path d="M 462.50 266.96 L 429.87 267.50 L 429.75 316.50 C429.69,343.45 429.72,375.73 429.82,388.22 L 430.00 410.42 C428.98,410.10 428.70,409.63 428.47,408.90 C428.11,407.77 428.38,405.50 429.06,403.86 C430.03,401.51 430.05,398.46 429.14,389.68 C427.47,373.56 427.79,268.42 429.52,266.99 C430.30,266.34 436.73,266.05 446.63,266.22 L 462.50 266.50 ZM 438.75 411.13 L 444.75 411.26 C449.89,411.37 454.71,411.46 457.76,411.50 C454.64,411.46 449.64,411.37 444.31,411.26 C442.17,411.22 440.34,411.18 438.75,411.13 ZM 463.00 314.77 L 463.03 318.03 L 463.00 318.05 Z" fill="rgb(63,95,167)"/>
<path d="M 721.55 604.36 C721.10,601.66 718.08,600.84 712.50,601.88 C709.53,602.44 699.39,602.50 687.50,602.03 C664.64,601.13 663.64,601.35 659.58,608.26 C658.68,609.79 657.28,611.62 655.62,613.53 C656.26,612.70 656.57,612.11 656.42,611.87 C655.72,610.73 660.50,603.46 663.18,601.59 C666.50,599.26 719.09,599.20 721.02,601.52 C721.45,602.04 721.61,603.02 721.55,604.36 ZM 280.97 553.33 C280.80,557.23 280.73,562.48 280.70,570.18 C280.65,584.04 280.95,592.33 281.64,595.36 C281.27,593.93 281.00,591.77 281.00,590.04 C281.00,587.83 280.46,585.99 279.75,585.75 C278.11,585.20 277.99,559.26 279.63,558.20 C280.07,557.92 280.53,556.23 280.97,553.33 ZM 428.55 405.50 C428.32,397.26 428.15,377.75 428.14,353.98 C428.29,370.70 428.61,384.61 429.14,389.68 C430.05,398.46 430.03,401.51 429.06,403.86 C428.85,404.36 428.68,404.93 428.55,405.50 ZM 865.91 465.02 C872.05,462.29 877.99,460.10 882.00,459.24 C883.38,458.94 884.81,458.22 885.19,457.64 C885.57,457.06 888.49,456.52 891.69,456.44 C894.01,456.38 898.07,456.15 901.95,455.86 C900.53,456.06 899.05,456.31 897.50,456.60 C893.10,457.42 887.25,458.46 884.50,458.91 C879.71,459.70 872.85,462.03 865.91,465.02 ZM 287.34 526.00 C287.05,526.88 286.77,527.84 286.43,529.00 C285.55,532.02 283.92,537.51 282.81,541.18 C282.48,542.27 282.20,543.30 281.97,544.37 C282.12,542.61 282.26,540.71 282.40,538.66 C282.54,536.55 283.12,534.53 283.69,534.16 C284.26,533.80 285.74,530.58 286.99,527.00 C287.10,526.66 287.22,526.33 287.34,526.00 ZM 347.00 366.25 C346.95,363.57 346.91,360.52 346.87,357.00 C346.73,343.72 346.44,332.27 346.21,331.29 C346.38,331.55 346.52,331.87 346.65,332.25 C347.08,333.49 347.28,344.90 347.10,357.62 C347.06,360.91 347.02,363.76 347.00,366.25 ZM 225.25 374.65 C225.80,372.81 226.25,370.83 226.36,369.67 C226.51,368.12 227.10,366.55 227.67,366.17 C228.25,365.80 229.01,363.25 229.35,360.50 C229.94,355.86 230.76,350.54 231.59,345.97 C230.72,350.84 229.86,356.62 229.15,362.50 C228.65,366.60 227.41,370.95 226.15,373.00 C225.83,373.52 225.53,374.09 225.25,374.65 ZM 918.01 455.44 C924.62,455.87 931.66,457.01 938.25,458.71 C935.09,457.97 931.35,457.31 926.09,456.48 C923.12,456.01 920.47,455.67 918.01,455.44 ZM 442.76 411.23 C443.26,411.24 443.77,411.25 444.31,411.26 C449.63,411.37 454.61,411.46 457.74,411.50 L 457.76 411.50 C459.52,411.52 460.70,411.53 461.00,411.52 C456.02,411.69 448.98,411.54 442.76,411.23 ZM 428.40 288.70 C428.61,273.13 428.94,267.51 429.51,266.99 C429.03,267.46 428.65,276.13 428.40,288.70 ZM 204.88 305.49 C205.74,307.62 209.45,322.34 213.45,339.50 C214.66,344.70 215.84,349.78 216.93,354.43 C215.97,350.37 214.95,346.01 213.90,341.50 C209.66,323.28 205.75,307.68 204.88,305.49 ZM 291.35 517.27 C289.92,519.89 289.05,521.62 288.38,523.20 C289.11,521.29 289.74,519.84 289.99,519.50 C290.18,519.24 290.68,518.41 291.35,517.27 ZM 223.49 379.67 L 223.94 378.42 C223.94,378.45 223.94,378.47 223.94,378.50 L 223.86 380.50 ZM 650.46 618.87 C647.14,622.00 643.64,624.78 641.00,626.21 C643.40,624.91 647.22,621.84 650.46,618.87 ZM 285.05 605.91 C285.36,606.86 285.67,607.83 285.97,608.77 C287.62,613.94 289.72,618.97 292.25,623.82 C289.50,618.56 287.25,613.10 285.54,607.50 C285.38,606.97 285.22,606.44 285.05,605.91 ZM 345.77 330.78 C344.93,330.28 342.95,330.00 339.99,330.00 C343.46,330.00 344.95,330.12 345.77,330.78 ZM 707.85 637.76 C707.62,638.09 707.38,638.44 707.13,638.79 C707.32,638.52 707.51,638.26 707.68,638.00 C709.64,635.11 711.58,631.77 713.36,628.26 C711.64,631.68 709.76,634.95 707.85,637.76 ZM 428.96 409.84 C428.88,409.80 428.83,409.76 428.80,409.72 C428.79,409.70 428.78,409.66 428.76,409.58 C428.82,409.67 428.88,409.76 428.96,409.84 ZM 339.99 330.00 L 339.95 330.00 C336.84,330.00 334.10,329.68 333.71,329.29 C334.10,329.68 336.86,330.00 339.99,330.00 Z" fill="rgb(120,144,189)"/>
<path d="M 0.00 512.00 L 0.00 0.00 L 512.00 0.00 L 1024.00 0.00 L 1024.00 512.00 L 1024.00 1024.00 L 512.00 1024.00 L 0.00 1024.00 L 0.00 512.00 ZM 405.92 682.96 C435.79,679.89 464.75,666.00 479.15,647.81 L 482.41 643.69 L 478.82 640.60 C476.84,638.89 471.24,635.53 466.36,633.13 C455.07,627.56 454.58,627.37 448.00,625.97 C444.98,625.33 440.12,624.12 437.21,623.30 C431.37,621.63 426.68,622.11 421.67,624.87 C411.90,630.26 406.88,631.50 394.93,631.47 C383.87,631.44 375.00,629.83 375.00,627.84 C375.00,627.38 374.27,627.00 373.37,627.00 C371.02,627.00 359.00,617.83 355.26,613.17 C343.46,598.49 338.53,579.72 341.05,559.03 C343.04,542.66 348.78,530.33 358.91,520.67 C377.80,502.65 410.25,502.42 428.84,520.17 C442.71,533.42 449.00,549.36 449.00,571.24 C449.00,584.49 447.99,588.83 441.93,601.50 C438.95,607.74 437.50,611.86 438.08,612.46 C439.37,613.78 450.74,610.64 459.84,606.44 C484.46,595.07 500.84,573.69 504.99,547.50 C506.76,536.33 500.78,517.84 490.39,502.38 C484.58,493.74 470.11,479.14 464.50,476.26 C462.85,475.41 461.27,474.42 461.00,474.05 C459.88,472.54 444.04,465.08 437.50,462.98 C433.65,461.75 429.60,460.39 428.50,459.96 C417.28,455.61 393.42,453.95 377.50,456.42 C370.53,457.51 362.57,459.18 360.50,460.00 C359.40,460.44 356.92,461.35 355.00,462.02 C350.94,463.43 341.19,467.71 339.00,469.04 C338.17,469.54 335.92,470.72 334.00,471.66 C332.08,472.60 329.07,474.52 327.32,475.93 C325.57,477.35 322.04,480.08 319.47,482.00 C311.83,487.73 299.48,502.53 294.02,512.50 C292.21,515.80 290.40,518.95 289.99,519.50 C289.59,520.05 288.23,523.42 286.99,527.00 C285.74,530.58 284.26,533.80 283.69,534.16 C283.12,534.53 282.54,536.55 282.40,538.66 C281.61,550.42 280.59,557.58 279.63,558.20 C277.99,559.26 278.11,585.20 279.75,585.75 C280.46,585.99 281.00,587.83 281.00,590.04 C281.00,592.16 281.41,594.94 281.90,596.20 C282.40,597.47 284.04,602.55 285.54,607.50 C293.07,632.26 311.26,654.19 336.47,668.88 C347.86,675.52 367.25,681.52 382.00,682.98 C393.24,684.09 394.92,684.09 405.92,682.96 ZM 636.61 681.45 C654.16,678.39 671.53,671.16 684.47,661.52 C692.45,655.58 703.07,644.79 707.85,637.76 C716.11,625.65 723.70,604.75 721.02,601.52 C719.09,599.20 666.50,599.26 663.18,601.59 C660.50,603.46 655.72,610.73 656.42,611.87 C657.18,613.10 646.01,623.49 641.00,626.21 C634.62,629.68 628.41,631.00 618.54,631.00 C611.13,631.00 609.05,630.59 603.30,627.98 C592.32,623.00 590.40,623.04 583.96,628.34 C579.29,632.19 576.18,633.60 562.99,637.90 C554.47,640.67 544.83,643.55 541.57,644.28 C532.87,646.25 532.28,648.04 538.50,653.72 C554.03,667.93 570.90,676.41 592.78,681.02 C603.95,683.38 624.43,683.58 636.61,681.45 ZM 931.11 680.41 C975.58,672.01 1009.49,637.89 1019.06,591.93 C1021.86,578.50 1022.14,556.58 1019.67,543.91 C1016.11,525.64 1008.88,509.36 998.50,496.22 C992.10,488.14 979.73,476.74 974.37,474.00 C972.79,473.19 969.46,471.17 966.97,469.52 C964.48,467.86 959.75,465.66 956.47,464.63 C953.19,463.61 949.60,462.42 948.50,461.98 C935.78,457.00 918.58,454.38 906.14,455.51 C901.39,455.94 894.89,456.36 891.69,456.44 C888.49,456.52 885.57,457.06 885.19,457.64 C884.81,458.22 883.38,458.94 882.00,459.24 C872.36,461.30 851.57,471.11 843.60,477.36 C833.31,485.41 820.97,499.52 816.16,508.71 C815.36,510.24 814.34,512.17 813.89,513.00 C810.81,518.73 808.02,525.36 806.53,530.50 C805.58,533.80 804.42,537.40 803.95,538.50 C801.50,544.30 800.19,577.58 801.99,588.50 C806.27,614.52 818.34,638.19 835.05,653.30 C861.60,677.33 896.02,687.05 931.11,680.41 ZM 218.45 675.62 C245.65,668.49 263.13,652.53 269.62,628.91 C270.84,624.47 271.38,618.97 271.36,611.00 C271.33,601.05 270.98,598.60 268.74,592.83 C264.51,581.94 257.39,572.48 250.26,568.31 C247.92,566.93 246.00,565.44 246.00,565.00 C246.00,563.66 227.02,554.33 218.48,551.46 C214.12,550.00 208.74,547.98 206.53,546.98 C204.31,545.98 199.57,544.20 196.00,543.02 C174.36,535.86 164.00,527.60 164.00,517.51 C164.00,506.47 175.02,497.77 186.95,499.41 C196.07,500.66 203.00,506.72 205.94,516.02 C206.72,518.48 207.79,521.07 208.31,521.76 C209.05,522.74 215.93,522.97 238.88,522.76 L 268.50 522.50 L 268.19 518.50 C267.63,511.25 265.05,502.62 260.85,494.00 C255.67,483.36 244.76,472.01 235.50,467.62 C232.20,466.06 228.72,464.38 227.76,463.89 C226.81,463.40 225.15,463.00 224.07,463.00 C223.00,463.00 221.84,462.55 221.50,462.00 C221.16,461.45 219.81,461.00 218.50,461.00 C217.19,461.00 215.87,460.60 215.57,460.11 C215.26,459.61 213.32,458.97 211.26,458.68 C209.19,458.39 203.45,457.46 198.50,456.61 C193.55,455.76 187.21,455.05 184.41,455.04 C179.15,455.00 164.03,457.05 155.79,458.92 C149.72,460.30 135.97,465.75 133.92,467.58 C133.05,468.36 132.06,469.00 131.72,469.00 C129.57,469.00 121.13,476.20 116.67,481.84 C107.61,493.29 104.48,503.26 104.54,520.50 C104.60,536.94 107.44,546.05 116.07,557.47 C124.08,568.07 135.25,574.11 167.00,585.03 C189.57,592.80 196.75,595.81 201.72,599.60 C205.92,602.80 210.98,611.55 210.99,615.63 C211.00,619.49 208.77,625.00 206.33,627.15 C199.12,633.50 185.94,635.06 177.82,630.53 C171.61,627.05 169.27,624.24 166.09,616.36 L 163.30 609.50 L 133.90 609.50 L 104.50 609.50 L 104.70 614.50 C104.93,620.55 106.91,628.38 110.29,636.69 C118.98,658.03 136.31,670.70 165.50,677.03 C178.97,679.95 204.54,679.27 218.45,675.62 ZM 788.00 570.00 L 788.00 463.00 L 759.06 463.00 C742.53,463.00 729.87,463.39 729.55,463.92 C728.79,465.14 728.78,674.83 729.53,676.05 C729.88,676.61 741.87,677.00 759.06,677.00 L 788.00 677.00 L 788.00 570.00 ZM 556.81 631.92 C559.39,631.33 567.46,627.91 574.73,624.31 L 587.97 617.78 L 584.60 613.85 C579.71,608.14 575.43,599.57 572.90,590.46 C570.05,580.19 569.80,559.26 572.39,548.50 C580.42,515.21 610.92,498.33 638.84,511.74 C645.19,514.80 654.45,523.70 657.45,529.64 C661.44,537.55 658.86,537.00 692.29,537.00 L 722.27 537.00 L 721.68 532.68 C719.90,519.67 710.87,501.59 699.73,488.70 C685.21,471.90 658.87,459.46 630.50,456.01 C622.02,454.97 618.64,455.03 608.26,456.40 C596.69,457.93 588.68,459.85 584.76,462.03 C583.81,462.56 582.32,463.00 581.45,463.00 C575.52,463.00 548.31,480.17 541.47,488.24 C534.58,496.36 526.98,507.05 524.93,511.50 C524.42,512.60 523.58,514.17 523.05,515.00 C519.92,519.92 516.06,531.85 514.96,540.00 C514.48,543.58 513.62,549.32 513.05,552.78 C511.83,560.22 512.33,589.21 513.75,593.50 C514.30,595.15 515.30,598.89 515.98,601.80 C519.01,614.88 527.60,626.64 537.31,631.05 C542.04,633.20 549.74,633.54 556.81,631.92 ZM 302.08 411.00 L 314.00 411.00 L 314.00 357.56 C314.00,328.17 313.61,303.88 313.13,303.58 C312.66,303.29 305.68,303.33 297.63,303.68 L 283.00 304.31 L 283.00 357.59 L 283.00 410.86 L 285.25 411.29 C286.49,411.53 288.10,411.56 288.83,411.36 C289.56,411.16 295.53,411.00 302.08,411.00 ZM 463.00 375.44 C463.57,334.55 463.38,335.49 471.75,331.78 C477.61,329.19 488.71,329.67 492.84,332.69 C499.88,337.83 501.16,345.62 500.86,381.50 L 500.61 410.50 L 516.55 410.77 L 532.50 411.05 L 532.21 371.77 C531.95,336.07 531.75,331.91 529.95,326.00 C526.14,313.42 519.35,307.08 507.00,304.54 C497.90,302.67 493.22,302.65 486.00,304.42 C477.84,306.43 475.85,307.44 472.00,311.49 C470.08,313.51 467.27,315.81 465.77,316.60 L 463.03 318.03 L 462.77 292.27 L 462.50 266.50 L 446.63 266.22 C436.75,266.05 430.30,266.34 429.52,266.98 C428.55,267.79 428.24,283.47 428.15,338.26 C428.08,376.89 428.37,409.05 428.80,409.72 C429.45,410.73 450.12,411.89 461.00,411.52 C462.30,411.48 462.57,406.55 463.00,375.44 ZM 172.48 399.25 C173.98,392.79 176.68,381.42 178.49,374.00 C180.29,366.58 182.75,356.11 183.96,350.74 C185.16,345.37 186.54,341.21 187.01,341.51 C188.22,342.26 192.01,352.63 193.04,358.00 C193.98,362.94 195.33,368.61 196.85,374.00 C197.40,375.92 198.56,380.42 199.45,384.00 C200.33,387.58 201.43,391.85 201.89,393.50 C202.35,395.15 203.27,398.52 203.93,401.00 C204.60,403.48 205.46,406.62 205.84,408.00 L 206.55 410.50 L 223.65 410.77 C239.30,411.02 240.80,410.90 241.28,409.27 C242.13,406.39 262.88,329.49 266.12,317.23 C267.76,311.04 268.79,305.47 268.41,304.86 C267.96,304.13 265.74,303.95 262.01,304.34 C258.87,304.67 253.48,304.48 250.04,303.93 C241.20,302.51 239.74,303.64 238.07,313.16 C237.37,317.20 236.57,321.17 236.31,322.00 C236.04,322.83 235.42,325.98 234.92,329.00 C234.43,332.02 233.56,336.52 232.99,339.00 C231.81,344.12 230.28,353.15 229.35,360.50 C229.01,363.25 228.25,365.80 227.67,366.17 C227.10,366.55 226.51,368.12 226.36,369.67 C226.21,371.23 225.44,374.29 224.65,376.48 L 223.20 380.46 L 222.16 376.48 C221.60,374.29 217.67,357.65 213.45,339.50 C209.22,321.35 205.31,305.94 204.76,305.25 C204.03,304.35 199.40,304.00 188.00,304.00 C169.97,304.00 170.05,303.97 168.84,312.35 C168.44,315.18 167.61,319.75 167.01,322.50 C166.40,325.25 165.52,329.52 165.05,332.00 C163.94,337.81 161.14,349.64 159.94,353.57 C159.42,355.26 159.00,358.50 159.00,360.76 C159.00,363.03 158.55,365.16 158.00,365.50 C157.45,365.84 157.00,366.73 157.00,367.48 C157.00,369.42 153.05,378.38 152.45,377.79 C152.18,377.51 149.52,365.41 146.55,350.90 C139.65,317.25 137.22,306.17 136.48,304.96 C136.14,304.42 129.79,304.00 121.91,304.00 C105.95,304.00 105.89,304.03 108.54,311.66 C109.46,314.32 111.10,319.88 112.18,324.00 C114.00,330.96 114.72,333.60 116.97,341.50 C117.81,344.46 120.00,352.32 124.09,367.00 C125.24,371.12 126.62,376.08 127.16,378.00 C127.70,379.92 128.37,382.62 128.64,384.00 C128.92,385.38 129.53,387.40 129.99,388.50 C130.45,389.60 131.12,391.62 131.46,393.00 C131.81,394.38 132.69,397.75 133.42,400.50 C134.15,403.25 135.04,406.74 135.39,408.25 L 136.04 411.00 L 152.90 411.00 L 169.76 411.00 L 172.48 399.25 ZM 405.00 399.04 C405.00,384.87 405.10,385.00 393.65,385.00 C386.53,385.00 386.05,384.85 383.59,381.92 C382.17,380.23 380.96,378.32 380.92,377.67 C380.87,377.03 380.73,366.05 380.60,353.28 L 380.37 330.06 L 392.44 329.78 L 404.50 329.50 L 404.78 317.08 C404.99,307.81 404.74,304.45 403.78,303.84 C402.04,302.74 395.43,302.83 390.22,304.04 C386.86,304.81 385.31,304.69 382.97,303.49 L 380.00 301.95 L 380.00 289.45 L 380.00 276.95 L 363.75 277.23 L 347.50 277.50 L 347.22 289.65 C346.89,303.92 346.54,304.50 338.09,304.50 L 332.50 304.50 L 332.87 316.50 C333.07,323.10 333.43,328.84 333.68,329.25 C333.92,329.66 336.74,330.00 339.95,330.00 C343.73,330.00 345.93,330.44 346.20,331.25 C346.43,331.94 346.73,343.52 346.87,357.00 C347.12,380.58 347.42,383.33 350.71,392.44 C353.65,400.56 359.12,405.75 368.14,409.00 C372.55,410.59 376.28,410.93 389.25,410.96 L 405.00 411.00 L 405.00 399.04 ZM 305.62 287.09 C319.33,280.86 320.32,259.97 307.16,254.40 C302.01,252.23 293.28,252.13 288.98,254.19 C272.09,262.29 278.21,288.84 297.00,288.93 C299.48,288.95 303.35,288.11 305.62,287.09 ZM 900.00 629.59 C891.15,627.28 883.61,623.02 877.20,616.71 C869.84,609.46 866.22,603.56 862.35,592.50 C859.72,585.01 859.55,583.48 859.57,568.50 C859.59,553.83 859.81,551.83 862.28,544.42 C867.79,527.91 879.16,515.38 893.09,510.47 C911.69,503.91 932.87,508.50 946.02,521.94 C952.46,528.52 957.87,537.12 959.90,544.00 C960.63,546.47 961.74,549.85 962.36,551.50 C963.87,555.53 963.76,581.52 962.21,586.84 C961.55,589.13 960.46,592.91 959.80,595.25 C958.55,599.70 957.75,601.23 952.33,609.66 C949.17,614.58 939.32,623.22 934.00,625.75 C925.74,629.67 920.20,630.99 912.50,630.88 C908.10,630.82 902.47,630.23 900.00,629.59 Z" fill="rgb(254,254,254)"/>
</g>
</svg>